<?xml version="1.0" standalone="no"?>
<!DOCTYPE svg PUBLIC "-//W3C//DTD SVG 1.1//EN" "http://www.w3.org/Graphics/SVG/1.1/DTD/svg11.dtd"><svg t="1717292353346"
  class="icon" viewBox="0 0 1024 1024" version="1.1" xmlns="http://www.w3.org/2000/svg" p-id="30380"
  xmlns:xlink="http://www.w3.org/1999/xlink">
  <path fill='currentColor'
    d="M896 128H341.333333l-341.333333 384 341.333333 384h554.666667a128 128 0 0 0 128-128V256a128 128 0 0 0-128-128z m42.666667 640a42.666667 42.666667 0 0 1-42.666667 42.666667H379.733333l-265.472-298.666667L379.733333 213.333333H896a42.666667 42.666667 0 0 1 42.666667 42.666667v512z m-140.501334-158.165333a42.666667 42.666667 0 1 1-60.330666 60.330666L640 572.330667l-97.834667 97.834666a42.666667 42.666667 0 0 1-60.330666-60.330666L579.669333 512l-97.834666-97.834667a42.666667 42.666667 0 0 1 60.330666-60.330666L640 451.669333l97.834667-97.834666a42.666667 42.666667 0 0 1 60.330666 60.330666L700.330667 512z"
    p-id="30381"></path>
</svg>
