<?xml version="1.0" standalone="no"?>
<!DOCTYPE svg PUBLIC "-//W3C//DTD SVG 1.1//EN" "http://www.w3.org/Graphics/SVG/1.1/DTD/svg11.dtd">
<svg t="1716636841298" class="icon" viewBox="0 0 1024 1024" version="1.1" xmlns="http://www.w3.org/2000/svg"
  p-id="20542" xmlns:xlink="http://www.w3.org/1999/xlink">
  <path fill='currentColor'
    d="M608 544v-64h192V372.48a9.6 9.6 0 0 1 15.744-7.36L977.28 499.84a16 16 0 0 1 0 24.576l-161.536 134.464a9.6 9.6 0 0 1-15.744-7.36V544h-192z m-192-64v64h-192v-64h192z m-192-107.52v279.04a9.6 9.6 0 0 1-15.744 7.36L46.784 524.416a16 16 0 0 1 0-24.576l161.472-134.72a9.6 9.6 0 0 1 15.744 7.36zM480 250h64v500h-64z"
    p-id="20545"></path>
</svg>
