<?xml version="1.0" standalone="no"?>
<!DOCTYPE svg PUBLIC "-//W3C//DTD SVG 1.1//EN" "http://www.w3.org/Graphics/SVG/1.1/DTD/svg11.dtd"><svg t="1716642512240"
  class="icon" viewBox="0 0 1024 1024" version="1.1" xmlns="http://www.w3.org/2000/svg" p-id="124774"
  xmlns:xlink="http://www.w3.org/1999/xlink">
  <path fill='currentColor'
    d="M512 92C280.4 92 92 280.4 92 512s188.4 420 420 420 420-188.4 420-420S743.6 92 512 92z m0 778.2c-197.5 0-358.2-160.7-358.2-358.2S314.5 153.8 512 153.8 870.2 314.5 870.2 512 709.5 870.2 512 870.2z"
    p-id="124775"></path>
  <path fill='currentColor' d="M348.9 417.6m-60.1 0a60.1 60.1 0 1 0 120.2 0 60.1 60.1 0 1 0-120.2 0Z" p-id="124776">
  </path>
  <path fill='currentColor' d="M675.1 417.6m-60.1 0a60.1 60.1 0 1 0 120.2 0 60.1 60.1 0 1 0-120.2 0Z" p-id="124777">
  </path>
  <path fill='currentColor'
    d="M693.4 592.5c-15.3-7.4-33.8-1.1-41.3 14.3C625.7 661 572 694.6 512 694.6s-113.7-33.7-140.1-87.9c-7.5-15.4-26-21.7-41.3-14.3-15.4 7.5-21.7 26-14.3 41.3 36.8 75.7 111.8 122.7 195.7 122.7 83.9 0 158.8-47 195.7-122.7 7.5-15.2 1.1-33.8-14.3-41.2z"
    p-id="124778"></path>
</svg>
