<?xml version="1.0" standalone="no"?>
<!DOCTYPE svg PUBLIC "-//W3C//DTD SVG 1.1//EN" "http://www.w3.org/Graphics/SVG/1.1/DTD/svg11.dtd"><svg t="1720013912396"
  class="icon" viewBox="0 0 1335 1024" version="1.1" xmlns="http://www.w3.org/2000/svg" p-id="14761"
  xmlns:xlink="http://www.w3.org/1999/xlink">
  <path fill='currentColor'
    d="M1236.769391 812.588522c-66.070261 79.515826-130.80487 118.472348-192.333913 115.97913-45.145043-1.892174-73.99513-25.33287-107.386435-52.446609-37.242435-30.252522-79.426783-64.556522-145.986782-66.292869-66.82713-1.001739-108.432696 33.658435-144.918261 64.868174-35.105391 30.052174-62.842435 53.626435-111.571478 45.701565-40.514783-6.656-67.450435-25.666783-98.660174-47.705043-31.944348-22.550261-68.162783-48.083478-120.587131-58.10087-92.805565-17.875478-194.760348 21.682087-302.903652 117.203478-13.868522 12.243478-16.517565 35.172174-5.943652 51.2 10.618435 16.072348 30.430609 19.077565 44.29913 6.878609 93.740522-82.810435 179.355826-117.537391 254.219131-103.201391 40.292174 7.68 68.34087 27.447652 97.970087 48.372869 32.50087 22.928696 69.298087 48.90713 122.679652 57.700174 74.351304 12.109913 118.850783-25.778087 158.052174-59.325217 32.456348-27.737043 60.460522-52.936348 105.961739-50.532174 47.34887 1.224348 76.866783 25.221565 111.059478 52.980869 36.329739 29.540174 77.55687 63.042783 141.423305 65.714087 2.693565 0.111304 5.38713 0.155826 8.058434 0.155826 77.668174 0 155.692522-46.569739 232.114087-138.529391 12.087652-14.536348 11.686957-37.665391-0.890434-51.645217-12.55513-13.957565-32.545391-13.490087-44.655305 1.024z"
    p-id="14762"></path>
  <path fill='currentColor'
    d="M1328.239304 338.387478a42.295652 42.295652 0 0 0-35.08313-19.366956l-299.119304-3.628522c-11.776-0.222609-22.038261 3.673043-30.764522 10.685217l-51.088696 40.915479H525.623652V64.422957c0-23.262609-18.320696-42.162087-40.848695-42.162087H395.798261c-22.550261 0-40.870957 18.921739-40.870957 42.162087v147.21113h-19.433739L333.868522 153.399652c-0.690087-22.928696-18.632348-40.848696-40.848696-40.848695H205.245217c-22.528 0-40.848696 18.921739-40.848695 42.162086v107.876174H109.211826c-22.528 0-40.848696 18.899478-40.848696 42.139826v62.241392H42.829913c-13.55687 0-26.468174 6.722783-34.504348 18.009043a45.523478 45.523478 0 0 0-6.41113 39.334957l111.705043 269.801739c0.445217 1.068522 1.046261 1.936696 1.558261 2.916174a629.359304 629.359304 0 0 0-98.103652 63.977739A33.391304 33.391304 0 0 0 11.130435 806.867478c10.573913 14.336 30.497391 17.051826 44.410435 6.144 94.029913-74.128696 179.867826-105.182609 254.99826-92.382608 40.425739 6.92313 68.518957 24.620522 98.259479 43.341913 32.589913 20.502261 69.498435 43.76487 123.080348 51.645217 74.596174 10.796522 119.206957-23.084522 158.519652-53.092174 32.545391-24.82087 60.594087-47.34887 106.273391-45.234087 47.504696 1.068522 77.111652 22.572522 111.415652 47.415652 36.441043 26.445913 77.779478 56.409043 141.846261 58.790957 2.671304 0.111304 5.38713 0.155826 8.080696 0.155826 77.890783 0 156.16-41.694609 232.826434-123.993044a33.435826 33.435826 0 0 0-0.890434-46.213565 31.031652 31.031652 0 0 0-44.811131 0.934957 456.94887 456.94887 0 0 1-59.369739 53.871304l146.854957-328.681739a45.367652 45.367652 0 0 0-4.385392-41.182609z m-1196.499478-10.418087h55.140174c22.550261 0 40.848696-18.921739 40.848696-42.139826V177.93113h43.453217l1.647304 58.123131c0.667826 22.973217 18.587826 40.96 40.848696 40.96h63.799652c22.528 0 40.870957-18.921739 40.870957-42.162087V87.641043h43.898435v279.351653H131.739826v-39.023305z m920.464696 430.169044c-45.278609-1.691826-74.195478-22.683826-107.675826-46.925913-37.353739-27.091478-79.693913-57.789217-146.454261-59.325218-67.027478-0.845913-108.744348 30.118957-145.363478 58.056348-35.216696 26.86887-63.087304 48.016696-111.905392 40.893218-40.626087-5.943652-67.673043-22.973217-98.971826-42.696348-32.055652-20.168348-68.34087-43.052522-120.943304-52.001392-47.148522-8.036174-96.656696-2.849391-148.123826 15.226435-0.289391-0.979478-0.489739-1.958957-0.890435-2.938435l-33.992348-81.964521h1032.548174l-74.618435 166.956521a164.329739 164.329739 0 0 1-43.631304 4.719305z m147.433739-237.078261H110.770087l-36.774957-88.687304h842.306783c11.308522 0 22.505739-3.962435 31.521391-11.152696l50.42087-40.381217 262.678261 3.183304-61.284174 137.060174z"
    p-id="14763"></path>
</svg>
