<?xml version="1.0" standalone="no"?>
<!DOCTYPE svg PUBLIC "-//W3C//DTD SVG 1.1//EN" "http://www.w3.org/Graphics/SVG/1.1/DTD/svg11.dtd"><svg t="1716640673862"
  class="icon" viewBox="0 0 1024 1024" version="1.1" xmlns="http://www.w3.org/2000/svg" p-id="99324"
  xmlns:xlink="http://www.w3.org/1999/xlink">
  <path fill="currentColor"
    d="M649.813333 217.301333a21.333333 21.333333 0 0 1 30.165334-1.066666l31.189333 29.098666a21.333333 21.333333 0 0 1 1.066667 30.165334l-220.202667 236.117333 220.16 236.16a21.333333 21.333333 0 0 1-1.024 30.122667l-31.189333 29.098666a21.333333 21.333333 0 0 1-30.165334-1.024l-246.4-264.234666-14.421333-13.44a21.248 21.248 0 0 1-6.528-12.288V789.333333a21.333333 21.333333 0 0 1-21.333333 21.333334h-42.666667a21.333333 21.333333 0 0 1-21.333333-21.333334v-554.666666a21.333333 21.333333 0 0 1 21.333333-21.333334h42.666667a21.333333 21.333333 0 0 1 21.333333 21.333334v272.554666a21.248 21.248 0 0 1 6.528-12.245333l14.464-13.482667z"
    opacity=".65" p-id="99325"></path>
</svg>
