<?xml version="1.0" standalone="no"?>
<!DOCTYPE svg PUBLIC "-//W3C//DTD SVG 1.1//EN" "http://www.w3.org/Graphics/SVG/1.1/DTD/svg11.dtd"><svg t="1717290206887"
  class="icon" viewBox="0 0 1024 1024" version="1.1" xmlns="http://www.w3.org/2000/svg" p-id="13977"
  xmlns:xlink="http://www.w3.org/1999/xlink">
  <path fill='currentColor'
    d="M512 665.6a735.744 735.744 0 0 0 88.064-25.6q11.776-8.192 19.968 0a265.728 265.728 0 0 1 44.032 51.2 32.512 32.512 0 0 1 3.84 12.032 22.016 22.016 0 0 1-15.872 4.096c-21.504 0-57.344 2.56-108.032 7.936 37.376-5.376 33.28-5.376-12.032 0a2680.32 2680.32 0 0 0-411.904 49.92 27.136 27.136 0 0 1-24.064-12.032Q84.224 733.184 76.8 716.8c-2.816-7.936-1.28-10.496 4.096-7.936A3251.2 3251.2 0 0 0 512 665.6zM256 141.056c2.56 0 4.096 2.816 4.096 7.936q159.744-11.776 423.936-44.032a526.336 526.336 0 0 0 120.064-23.808c15.872-2.816 25.6 0 32 7.936a443.648 443.648 0 0 1 67.84 91.904c8.192 13.568 10.752 21.504 8.192 24.064s-5.376 5.376-16.128 7.936a911.872 911.872 0 0 1-132.096 19.968c-7.936 2.816-13.312 2.816-15.872 0a40.192 40.192 0 0 1 7.936-15.872 469.248 469.248 0 0 0 28.16-48.128 28.928 28.928 0 0 0 3.84-23.808 24.064 24.064 0 0 0-24.064-4.096q-299.776 24.32-503.808 51.2a947.2 947.2 0 0 1-68.096 144.896c-15.872 15.872-29.44 13.312-39.936-8.192a116.224 116.224 0 0 1 19.968-91.904C204.8 180.992 214.528 131.84 204.8 89.088c-2.816-7.936 0-13.312 4.096-16.128s10.496 0 15.872 8.192A179.2 179.2 0 0 1 256 141.056z m120.064 48.128a492.544 492.544 0 0 1 56.064 43.776 62.976 62.976 0 0 1 11.776 44.032c-7.936 34.816-22.528 114.688-43.776 240.128 133.12-10.752 219.904-19.968 259.84-28.16a192.256 192.256 0 0 0 80.128-19.968 28.672 28.672 0 0 1 32-3.84 270.08 270.08 0 0 1 67.84 59.904c10.752 7.936 12.032 19.968 4.096 36.096q-24.064 39.936-64 199.936a1039.36 1039.36 0 0 1-36.096 120.064 159.488 159.488 0 0 1-91.904 83.968c-16.128 2.56-24.064-2.816-24.064-16.128a162.56 162.56 0 0 0-47.872-108.032c-2.816-5.12-2.816-9.216 0-11.776a7.936 7.936 0 0 1 12.032-4.096 42.24 42.24 0 0 0 15.872 7.936l36.096 12.032a25.6 25.6 0 0 0 27.904-7.936q31.744-51.2 59.904-208.128c5.376-34.56 9.472-59.904 12.032-76.8s-3.84-21.248-19.968-23.808a1931.52 1931.52 0 0 0-419.84 47.872h-4.096a22.016 22.016 0 0 1-27.904-3.84 200.448 200.448 0 0 1-28.16-40.192c-2.56-5.12-2.56-9.216 0-12.032a5.12 5.12 0 0 1 7.936 0 377.344 377.344 0 0 0 80.128 0q19.968-103.68 27.904-171.776a109.056 109.056 0 0 0 4.096-20.224 238.848 238.848 0 0 1 4.096-39.936A224.512 224.512 0 0 0 364.032 204.8c-2.816-7.936-2.816-13.312 0-15.872s6.656-2.56 12.032 0.256z m359.936 115.968a17.408 17.408 0 0 1 24.064 3.84c2.56 2.816 6.656 6.656 12.032 12.032a39.168 39.168 0 0 0 7.936 12.032c7.936 13.312 5.376 21.504-7.936 24.064a1941.248 1941.248 0 0 0-280.064 32c-5.376 5.376-12.032 3.84-19.968-4.096l-24.064-24.064c-5.376-5.12-6.656-7.936-4.096-7.936l8.192-3.84a1162.496 1162.496 0 0 0 283.904-44.032z"
    p-id="13978"></path>
</svg>
